<?xml version="1.0" encoding="utf-8"?>
<!-- Generator: Adobe Illustrator 16.0.4, SVG Export Plug-In . SVG Version: 6.00 Build 0)  -->
<!DOCTYPE svg PUBLIC "-//W3C//DTD SVG 1.1//EN" "http://www.w3.org/Graphics/SVG/1.1/DTD/svg11.dtd">
<svg version="1.1" id="Layer_1" xmlns="http://www.w3.org/2000/svg" xmlns:xlink="http://www.w3.org/1999/xlink" x="0px" y="0px"
	 width="96px" height="50px" viewBox="0 0 96 50" enable-background="new 0 0 96 50" xml:space="preserve">
<path fill="#FFFFFF" d="M17.951,9.871c-0.497-0.566-1.358-0.625-1.926-0.128c-0.568,0.496-0.625,1.358-0.128,1.926
	c0.038,0.043,3.829,4.377,4.904,5.631c0.925,1.08,1.395,2.434,1.395,4.025v10.925c0,0.753,0.609,1.363,1.364,1.363
	c0.754,0,1.365-0.61,1.365-1.363V21.326c0-2.262-0.689-4.214-2.05-5.801C21.79,14.259,17.988,9.914,17.951,9.871"/>
<path fill="#FFFFFF" d="M32.364,34.461c-0.925-1.079-1.395-2.435-1.395-4.026V19.51c0-0.754-0.611-1.365-1.365-1.365
	s-1.365,0.611-1.365,1.365v10.925c0,2.262,0.69,4.216,2.051,5.802c1.085,1.266,4.884,5.609,4.923,5.654
	c0.27,0.308,0.647,0.464,1.028,0.464c0.318,0,0.639-0.11,0.898-0.337c0.566-0.496,0.625-1.359,0.128-1.926
	C37.229,40.049,33.439,35.716,32.364,34.461"/>
<path fill="#FFFFFF" d="M13.61,19.61c-0.325-0.722-0.885-1.102-1.616-1.102H11.87c-0.734,0-1.315,0.391-1.636,1.102L4.846,31.628
	c-0.122,0.245-0.178,0.439-0.178,0.631c0,0.725,0.569,1.293,1.295,1.293c0.593,0,1.062-0.32,1.284-0.875l0.743-1.7h7.799
	l0.703,1.615c0.261,0.621,0.74,0.96,1.348,0.96c0.736,0,1.313-0.585,1.313-1.334c0-0.201-0.054-0.406-0.153-0.586L13.61,19.61z
	 M14.599,28.225H9.183l2.707-6.234l2.447,5.628L14.599,28.225z"/>
<path fill="#FFFFFF" d="M39.967,22.053h-0.089c-3.02,0-5.476,2.507-5.476,5.588v0.266c0,3.356,2.409,5.792,5.729,5.792
	c1.589,0,2.902-0.485,4.017-1.484c0.136-0.137,0.366-0.428,0.366-0.847c0-0.632-0.487-1.129-1.107-1.129
	c-0.324,0-0.513,0.098-0.715,0.254c-0.758,0.625-1.583,0.928-2.52,0.928c-1.329,0-2.822-0.734-3.228-2.371h6.789
	c0.726,0,1.293-0.576,1.293-1.314c0-1.373-0.444-2.747-1.218-3.77C42.882,22.739,41.554,22.08,39.967,22.053 M39.788,24.238
	c1.537,0,2.662,1.073,2.716,2.567h-5.588C37.242,25.309,38.432,24.238,39.788,24.238"/>
<path fill="#FFFFFF" d="M56.205,22.156c-0.595,0-1.034,0.344-1.307,1.025l-2.634,7.006l-2.836-7.007
	c-0.273-0.699-0.696-1.024-1.327-1.024c-0.773,0-1.356,0.573-1.356,1.334c0,0.179,0.061,0.438,0.154,0.647l4.044,9.037l-0.063,0.175
	c-0.4,0.82-0.767,1.099-1.454,1.099c-0.346,0-0.574-0.068-0.834-0.141c-0.124-0.041-0.265-0.089-0.491-0.089
	c-0.633,0-1.127,0.504-1.127,1.148c0,0.772,0.604,1.058,0.857,1.142c0.558,0.224,1.093,0.318,1.783,0.318
	c1.812,0,2.841-0.85,3.793-3.138l4.004-9.603c0.042-0.126,0.109-0.413,0.109-0.636C57.521,22.724,56.943,22.156,56.205,22.156"/>
<path fill="#FFFFFF" d="M64.653,26.762l-0.21-0.068c-1.169-0.373-2.178-0.696-2.178-1.378v-0.042c0-0.586,0.559-0.966,1.422-0.966
	c0.71,0,1.581,0.254,2.521,0.735c0.175,0.088,0.315,0.137,0.548,0.137c0.645,0,1.148-0.497,1.148-1.13
	c0-0.446-0.239-0.829-0.661-1.052c-1.101-0.584-2.341-0.905-3.494-0.905c-2.359,0-4.008,1.419-4.008,3.45v0.041
	c0,2.152,1.808,2.844,3.498,3.32l0.26,0.078c1.131,0.344,2.106,0.641,2.106,1.348v0.043c0,0.668-0.593,1.068-1.586,1.068
	c-1.002,0-2.069-0.359-3.097-1.042c-0.126-0.073-0.332-0.161-0.593-0.161c-0.633,0-1.13,0.497-1.13,1.129
	c0,0.421,0.207,0.791,0.526,0.964c1.224,0.841,2.766,1.326,4.23,1.326c2.574,0,4.175-1.363,4.175-3.555v-0.041
	C68.132,28.115,66.461,27.326,64.653,26.762"/>
</svg>
