<?xml version="1.0" encoding="utf-8"?>
<!-- Generator: Adobe Illustrator 16.0.4, SVG Export Plug-In . SVG Version: 6.00 Build 0)  -->
<!DOCTYPE svg PUBLIC "-//W3C//DTD SVG 1.1//EN" "http://www.w3.org/Graphics/SVG/1.1/DTD/svg11.dtd">
<svg version="1.1" id="Layer_1" xmlns="http://www.w3.org/2000/svg" xmlns:xlink="http://www.w3.org/1999/xlink" x="0px" y="0px"
	 width="250px" height="250px" viewBox="0 0 250 250" enable-background="new 0 0 250 250" xml:space="preserve">
<g>
	<defs>
		<rect id="SVGID_1_" x="-219.829" y="-78.103" width="689.658" height="487.641"/>
	</defs>
	<clipPath id="SVGID_2_">
		<use xlink:href="#SVGID_1_"  overflow="visible"/>
	</clipPath>
	<path clip-path="url(#SVGID_2_)" fill="#FFFFFF" d="M57.803,107.409c-1.811-2.064-4.948-2.274-7.016-0.467
		c-2.066,1.808-2.276,4.947-0.468,7.016c0.14,0.158,13.949,15.941,17.863,20.509c3.37,3.932,5.079,8.864,5.079,14.661v39.791
		c0,2.746,2.225,4.971,4.971,4.971c2.746,0,4.972-2.225,4.972-4.971v-39.791c0-8.237-2.513-15.348-7.471-21.131
		C71.785,123.391,57.94,107.568,57.803,107.409"/>
	<path clip-path="url(#SVGID_2_)" fill="#FFFFFF" d="M110.299,196.968c-3.371-3.931-5.081-8.864-5.081-14.661v-39.79
		c0-2.746-2.225-4.971-4.971-4.971c-2.746,0-4.971,2.225-4.971,4.971v39.79c0,8.237,2.514,15.349,7.472,21.132
		c3.948,4.606,17.792,20.428,17.93,20.588c0.984,1.122,2.359,1.697,3.744,1.697c1.162,0,2.328-0.405,3.273-1.229
		c2.065-1.809,2.275-4.949,0.467-7.017C128.022,217.319,114.214,201.536,110.299,196.968"/>
	<path clip-path="url(#SVGID_2_)" fill="#FFFFFF" d="M41.992,142.88c-1.185-2.627-3.22-4.015-5.884-4.015h-0.452
		c-2.672,0-4.79,1.426-5.96,4.016l-19.62,43.771c-0.448,0.895-0.647,1.602-0.647,2.297c0,2.643,2.07,4.714,4.712,4.714
		c2.164,0,3.87-1.168,4.677-3.192l2.707-6.19h28.406l2.561,5.886c0.953,2.255,2.695,3.497,4.906,3.497
		c2.685,0,4.789-2.138,4.789-4.864c0-0.729-0.201-1.479-0.564-2.131L41.992,142.88z M45.593,174.259H25.869l9.862-22.709
		l8.909,20.501L45.593,174.259z"/>
	<path clip-path="url(#SVGID_2_)" fill="#FFFFFF" d="M137.986,151.776l-0.323-0.002c-10.999,0-19.945,9.132-19.945,20.357v0.964
		c0,12.223,8.776,21.095,20.868,21.095c5.789,0,10.571-1.764,14.635-5.406c0.496-0.497,1.328-1.556,1.328-3.082
		c0-2.304-1.771-4.108-4.033-4.108c-1.176,0-1.864,0.35-2.603,0.924c-2.76,2.273-5.761,3.38-9.175,3.38
		c-4.844,0-10.279-2.677-11.756-8.641h24.723c2.642,0,4.712-2.103,4.712-4.788c0-5-1.616-10.004-4.434-13.731
		C148.61,154.279,143.771,151.872,137.986,151.776 M137.34,159.734c5.595,0,9.692,3.908,9.888,9.35h-20.354
		C128.066,163.638,132.4,159.734,137.34,159.734"/>
	<path clip-path="url(#SVGID_2_)" fill="#FFFFFF" d="M197.134,152.152c-2.167,0-3.77,1.255-4.761,3.738l-9.598,25.515
		l-10.324-25.521c-1-2.545-2.536-3.731-4.835-3.731c-2.816,0-4.939,2.09-4.939,4.862c0,0.65,0.226,1.596,0.563,2.357l14.729,32.914
		l-0.229,0.635c-1.457,2.989-2.792,3.997-5.293,3.997c-1.265,0-2.096-0.237-3.041-0.507c-0.454-0.151-0.969-0.323-1.791-0.323
		c-2.304,0-4.109,1.838-4.109,4.186c0,2.808,2.202,3.847,3.125,4.153c2.037,0.814,3.979,1.162,6.493,1.162
		c6.602,0,10.347-3.096,13.816-11.424l14.582-34.982c0.154-0.462,0.399-1.501,0.399-2.318
		C201.923,154.222,199.82,152.152,197.134,152.152"/>
	<path clip-path="url(#SVGID_2_)" fill="#FFFFFF" d="M227.908,168.931l-0.77-0.248c-4.256-1.364-7.93-2.541-7.93-5.024v-0.15
		c0-2.137,2.032-3.517,5.178-3.517c2.581,0,5.754,0.925,9.176,2.675c0.645,0.322,1.154,0.496,1.995,0.496
		c2.346,0,4.185-1.805,4.185-4.108c0-1.627-0.877-3.023-2.408-3.835c-4.01-2.124-8.53-3.294-12.724-3.294
		c-8.598,0-14.601,5.167-14.601,12.563v0.152c0,7.839,6.583,10.354,12.745,12.093l0.944,0.286c4.117,1.248,7.673,2.325,7.673,4.908
		v0.151c0,2.438-2.16,3.894-5.778,3.894c-3.648,0-7.539-1.309-11.274-3.797c-0.464-0.265-1.217-0.583-2.163-0.583
		c-2.306,0-4.11,1.805-4.11,4.11c0,1.527,0.748,2.882,1.914,3.507c4.456,3.068,10.072,4.829,15.407,4.829
		c9.379,0,15.205-4.959,15.205-12.941v-0.151C240.571,173.855,234.483,170.979,227.908,168.931"/>
</g>
</svg>
